<?xml version="1.0" encoding="UTF-8" standalone="no"?>
<!DOCTYPE svg PUBLIC "-//W3C//DTD SVG 1.1//EN"
 "http://www.w3.org/Graphics/SVG/1.1/DTD/svg11.dtd">
<!-- Generated by graphviz version 2.40.1 (20161225.0304)
 -->
<!-- Title: godep Pages: 1 -->
<svg width="1073pt" height="420pt"
 viewBox="0.00 0.00 1072.61 420.00" xmlns="http://www.w3.org/2000/svg" xmlns:xlink="http://www.w3.org/1999/xlink">
<g id="graph0" class="graph" transform="scale(1 1) rotate(0) translate(4 416)">
<title>godep</title>
<polygon fill="#ffffff" stroke="transparent" points="-4,4 -4,-416 1068.6143,-416 1068.6143,4 -4,4"/>
<!-- github.com/ubiqueworks/go&#45;solid&#45;tutorial/cmd/server -->
<g id="node1" class="node">
<title>github.com/ubiqueworks/go&#45;solid&#45;tutorial/cmd/server</title>
<g id="a_node1"><a xlink:href="https://godoc.org/github.com/ubiqueworks/go-solid-tutorial/cmd/server" xlink:title="github.com/ubiqueworks/go&#45;solid&#45;tutorial/cmd/server" target="_blank">
<path fill="#afeeee" stroke="#afeeee" d="M690.6751,-412C690.6751,-412 398.5632,-412 398.5632,-412 392.5632,-412 386.5632,-406 386.5632,-400 386.5632,-400 386.5632,-388 386.5632,-388 386.5632,-382 392.5632,-376 398.5632,-376 398.5632,-376 690.6751,-376 690.6751,-376 696.6751,-376 702.6751,-382 702.6751,-388 702.6751,-388 702.6751,-400 702.6751,-400 702.6751,-406 696.6751,-412 690.6751,-412"/>
<text text-anchor="middle" x="544.6191" y="-389.8" font-family="Times,serif" font-size="14.00" fill="#000000">github.com/ubiqueworks/go&#45;solid&#45;tutorial/cmd/server</text>
</a>
</g>
</g>
<!-- github.com/ubiqueworks/go&#45;solid&#45;tutorial/handler/httphandler -->
<g id="node2" class="node">
<title>github.com/ubiqueworks/go&#45;solid&#45;tutorial/handler/httphandler</title>
<g id="a_node2"><a xlink:href="https://godoc.org/github.com/ubiqueworks/go-solid-tutorial/handler/httphandler" xlink:title="github.com/ubiqueworks/go&#45;solid&#45;tutorial/handler/httphandler" target="_blank">
<path fill="#afeeee" stroke="#afeeee" d="M1052.6094,-318C1052.6094,-318 712.6289,-318 712.6289,-318 706.6289,-318 700.6289,-312 700.6289,-306 700.6289,-306 700.6289,-294 700.6289,-294 700.6289,-288 706.6289,-282 712.6289,-282 712.6289,-282 1052.6094,-282 1052.6094,-282 1058.6094,-282 1064.6094,-288 1064.6094,-294 1064.6094,-294 1064.6094,-306 1064.6094,-306 1064.6094,-312 1058.6094,-318 1052.6094,-318"/>
<text text-anchor="middle" x="882.6191" y="-295.8" font-family="Times,serif" font-size="14.00" fill="#000000">github.com/ubiqueworks/go&#45;solid&#45;tutorial/handler/httphandler</text>
</a>
</g>
</g>
<!-- github.com/ubiqueworks/go&#45;solid&#45;tutorial/cmd/server&#45;&gt;github.com/ubiqueworks/go&#45;solid&#45;tutorial/handler/httphandler -->
<g id="edge1" class="edge">
<title>github.com/ubiqueworks/go&#45;solid&#45;tutorial/cmd/server&#45;&gt;github.com/ubiqueworks/go&#45;solid&#45;tutorial/handler/httphandler</title>
<path fill="none" stroke="#000000" d="M691.6223,-375.6585C691.6223,-346.7893 691.6223,-294 691.6223,-294 691.6223,-294 695.5783,-294 695.5783,-294"/>
<polygon fill="#000000" stroke="#000000" points="695.5783,-295.7501 700.5783,-294 695.5783,-292.2501 695.5783,-295.7501"/>
</g>
<!-- github.com/ubiqueworks/go&#45;solid&#45;tutorial/handler/rpchandler -->
<g id="node3" class="node">
<title>github.com/ubiqueworks/go&#45;solid&#45;tutorial/handler/rpchandler</title>
<g id="a_node3"><a xlink:href="https://godoc.org/github.com/ubiqueworks/go-solid-tutorial/handler/rpchandler" xlink:title="github.com/ubiqueworks/go&#45;solid&#45;tutorial/handler/rpchandler" target="_blank">
<path fill="#afeeee" stroke="#afeeee" d="M600.7061,-318C600.7061,-318 264.5322,-318 264.5322,-318 258.5322,-318 252.5322,-312 252.5322,-306 252.5322,-306 252.5322,-294 252.5322,-294 252.5322,-288 258.5322,-282 264.5322,-282 264.5322,-282 600.7061,-282 600.7061,-282 606.7061,-282 612.7061,-288 612.7061,-294 612.7061,-294 612.7061,-306 612.7061,-306 612.7061,-312 606.7061,-318 600.7061,-318"/>
<text text-anchor="middle" x="432.6191" y="-295.8" font-family="Times,serif" font-size="14.00" fill="#000000">github.com/ubiqueworks/go&#45;solid&#45;tutorial/handler/rpchandler</text>
</a>
</g>
</g>
<!-- github.com/ubiqueworks/go&#45;solid&#45;tutorial/cmd/server&#45;&gt;github.com/ubiqueworks/go&#45;solid&#45;tutorial/handler/rpchandler -->
<g id="edge2" class="edge">
<title>github.com/ubiqueworks/go&#45;solid&#45;tutorial/cmd/server&#45;&gt;github.com/ubiqueworks/go&#45;solid&#45;tutorial/handler/rpchandler</title>
<path fill="none" stroke="#000000" d="M499.502,-375.8759C499.502,-375.8759 499.502,-323.0685 499.502,-323.0685"/>
<polygon fill="#000000" stroke="#000000" points="501.2521,-323.0685 499.502,-318.0685 497.7521,-323.0685 501.2521,-323.0685"/>
</g>
<!-- github.com/ubiqueworks/go&#45;solid&#45;tutorial/repo -->
<g id="node4" class="node">
<title>github.com/ubiqueworks/go&#45;solid&#45;tutorial/repo</title>
<g id="a_node4"><a xlink:href="https://godoc.org/github.com/ubiqueworks/go-solid-tutorial/repo" xlink:title="github.com/ubiqueworks/go&#45;solid&#45;tutorial/repo" target="_blank">
<path fill="#afeeee" stroke="#afeeee" d="M267.3575,-130C267.3575,-130 11.8808,-130 11.8808,-130 5.8808,-130 -.1192,-124 -.1192,-118 -.1192,-118 -.1192,-106 -.1192,-106 -.1192,-100 5.8808,-94 11.8808,-94 11.8808,-94 267.3575,-94 267.3575,-94 273.3575,-94 279.3575,-100 279.3575,-106 279.3575,-106 279.3575,-118 279.3575,-118 279.3575,-124 273.3575,-130 267.3575,-130"/>
<text text-anchor="middle" x="139.6191" y="-107.8" font-family="Times,serif" font-size="14.00" fill="#000000">github.com/ubiqueworks/go&#45;solid&#45;tutorial/repo</text>
</a>
</g>
</g>
<!-- github.com/ubiqueworks/go&#45;solid&#45;tutorial/cmd/server&#45;&gt;github.com/ubiqueworks/go&#45;solid&#45;tutorial/repo -->
<g id="edge3" class="edge">
<title>github.com/ubiqueworks/go&#45;solid&#45;tutorial/cmd/server&#45;&gt;github.com/ubiqueworks/go&#45;solid&#45;tutorial/repo</title>
<path fill="none" stroke="#000000" d="M386.466,-394C268.0019,-394 126.2878,-394 126.2878,-394 126.2878,-394 126.2878,-135.0694 126.2878,-135.0694"/>
<polygon fill="#000000" stroke="#000000" points="128.0379,-135.0693 126.2878,-130.0694 124.5379,-135.0694 128.0379,-135.0693"/>
</g>
<!-- github.com/ubiqueworks/go&#45;solid&#45;tutorial/service -->
<g id="node5" class="node">
<title>github.com/ubiqueworks/go&#45;solid&#45;tutorial/service</title>
<g id="a_node5"><a xlink:href="https://godoc.org/github.com/ubiqueworks/go-solid-tutorial/service" xlink:title="github.com/ubiqueworks/go&#45;solid&#45;tutorial/service" target="_blank">
<path fill="#afeeee" stroke="#afeeee" d="M946.623,-224C946.623,-224 676.6152,-224 676.6152,-224 670.6152,-224 664.6152,-218 664.6152,-212 664.6152,-212 664.6152,-200 664.6152,-200 664.6152,-194 670.6152,-188 676.6152,-188 676.6152,-188 946.623,-188 946.623,-188 952.623,-188 958.623,-194 958.623,-200 958.623,-200 958.623,-212 958.623,-212 958.623,-218 952.623,-224 946.623,-224"/>
<text text-anchor="middle" x="811.6191" y="-201.8" font-family="Times,serif" font-size="14.00" fill="#000000">github.com/ubiqueworks/go&#45;solid&#45;tutorial/service</text>
</a>
</g>
</g>
<!-- github.com/ubiqueworks/go&#45;solid&#45;tutorial/cmd/server&#45;&gt;github.com/ubiqueworks/go&#45;solid&#45;tutorial/service -->
<g id="edge4" class="edge">
<title>github.com/ubiqueworks/go&#45;solid&#45;tutorial/cmd/server&#45;&gt;github.com/ubiqueworks/go&#45;solid&#45;tutorial/service</title>
<path fill="none" stroke="#000000" d="M682.6206,-375.9738C682.6206,-375.9738 682.6206,-229.2479 682.6206,-229.2479"/>
<polygon fill="#000000" stroke="#000000" points="684.3707,-229.2479 682.6206,-224.2479 680.8707,-229.2479 684.3707,-229.2479"/>
</g>
<!-- github.com/ubiqueworks/go&#45;solid&#45;tutorial/handler/httphandler&#45;&gt;github.com/ubiqueworks/go&#45;solid&#45;tutorial/service -->
<g id="edge5" class="edge">
<title>github.com/ubiqueworks/go&#45;solid&#45;tutorial/handler/httphandler&#45;&gt;github.com/ubiqueworks/go&#45;solid&#45;tutorial/service</title>
<path fill="none" stroke="#000000" d="M829.6226,-281.8759C829.6226,-281.8759 829.6226,-229.0685 829.6226,-229.0685"/>
<polygon fill="#000000" stroke="#000000" points="831.3727,-229.0685 829.6226,-224.0685 827.8727,-229.0685 831.3727,-229.0685"/>
</g>
<!-- github.com/ubiqueworks/go&#45;solid&#45;tutorial/handler/rpchandler&#45;&gt;github.com/ubiqueworks/go&#45;solid&#45;tutorial/service -->
<g id="edge8" class="edge">
<title>github.com/ubiqueworks/go&#45;solid&#45;tutorial/handler/rpchandler&#45;&gt;github.com/ubiqueworks/go&#45;solid&#45;tutorial/service</title>
<path fill="none" stroke="#000000" d="M612.8045,-306C647.6714,-306 673.6189,-306 673.6189,-306 673.6189,-306 673.6189,-229.3415 673.6189,-229.3415"/>
<polygon fill="#000000" stroke="#000000" points="675.369,-229.3415 673.6189,-224.3415 671.869,-229.3416 675.369,-229.3415"/>
</g>
<!-- github.com/ubiqueworks/go&#45;solid&#45;tutorial/domain -->
<g id="node6" class="node">
<title>github.com/ubiqueworks/go&#45;solid&#45;tutorial/domain</title>
<g id="a_node6"><a xlink:href="https://godoc.org/github.com/ubiqueworks/go-solid-tutorial/domain" xlink:title="github.com/ubiqueworks/go&#45;solid&#45;tutorial/domain" target="_blank">
<path fill="#afeeee" stroke="#afeeee" d="M459.9748,-36C459.9748,-36 187.2635,-36 187.2635,-36 181.2635,-36 175.2635,-30 175.2635,-24 175.2635,-24 175.2635,-12 175.2635,-12 175.2635,-6 181.2635,0 187.2635,0 187.2635,0 459.9748,0 459.9748,0 465.9748,0 471.9748,-6 471.9748,-12 471.9748,-12 471.9748,-24 471.9748,-24 471.9748,-30 465.9748,-36 459.9748,-36"/>
<text text-anchor="middle" x="323.6191" y="-13.8" font-family="Times,serif" font-size="14.00" fill="#000000">github.com/ubiqueworks/go&#45;solid&#45;tutorial/domain</text>
</a>
</g>
</g>
<!-- github.com/ubiqueworks/go&#45;solid&#45;tutorial/handler/rpchandler&#45;&gt;github.com/ubiqueworks/go&#45;solid&#45;tutorial/domain -->
<g id="edge6" class="edge">
<title>github.com/ubiqueworks/go&#45;solid&#45;tutorial/handler/rpchandler&#45;&gt;github.com/ubiqueworks/go&#45;solid&#45;tutorial/domain</title>
<path fill="none" stroke="#000000" d="M323.3381,-281.9306C323.3381,-281.9306 323.3381,-41.2838 323.3381,-41.2838"/>
<polygon fill="#000000" stroke="#000000" points="325.0882,-41.2838 323.3381,-36.2838 321.5882,-41.2839 325.0882,-41.2838"/>
</g>
<!-- github.com/ubiqueworks/go&#45;solid&#45;tutorial/pb -->
<g id="node7" class="node">
<title>github.com/ubiqueworks/go&#45;solid&#45;tutorial/pb</title>
<g id="a_node7"><a xlink:href="https://godoc.org/github.com/ubiqueworks/go-solid-tutorial/pb" xlink:title="github.com/ubiqueworks/go&#45;solid&#45;tutorial/pb" target="_blank">
<path fill="#afeeee" stroke="#afeeee" d="M623.9817,-224C623.9817,-224 379.2566,-224 379.2566,-224 373.2566,-224 367.2566,-218 367.2566,-212 367.2566,-212 367.2566,-200 367.2566,-200 367.2566,-194 373.2566,-188 379.2566,-188 379.2566,-188 623.9817,-188 623.9817,-188 629.9817,-188 635.9817,-194 635.9817,-200 635.9817,-200 635.9817,-212 635.9817,-212 635.9817,-218 629.9817,-224 623.9817,-224"/>
<text text-anchor="middle" x="501.6191" y="-201.8" font-family="Times,serif" font-size="14.00" fill="#000000">github.com/ubiqueworks/go&#45;solid&#45;tutorial/pb</text>
</a>
</g>
</g>
<!-- github.com/ubiqueworks/go&#45;solid&#45;tutorial/handler/rpchandler&#45;&gt;github.com/ubiqueworks/go&#45;solid&#45;tutorial/pb -->
<g id="edge7" class="edge">
<title>github.com/ubiqueworks/go&#45;solid&#45;tutorial/handler/rpchandler&#45;&gt;github.com/ubiqueworks/go&#45;solid&#45;tutorial/pb</title>
<path fill="none" stroke="#000000" d="M490.0503,-281.8759C490.0503,-281.8759 490.0503,-229.0685 490.0503,-229.0685"/>
<polygon fill="#000000" stroke="#000000" points="491.8004,-229.0685 490.0503,-224.0685 488.3004,-229.0685 491.8004,-229.0685"/>
</g>
<!-- github.com/ubiqueworks/go&#45;solid&#45;tutorial/repo&#45;&gt;github.com/ubiqueworks/go&#45;solid&#45;tutorial/domain -->
<g id="edge9" class="edge">
<title>github.com/ubiqueworks/go&#45;solid&#45;tutorial/repo&#45;&gt;github.com/ubiqueworks/go&#45;solid&#45;tutorial/domain</title>
<path fill="none" stroke="#000000" d="M227.3398,-93.8759C227.3398,-93.8759 227.3398,-41.0685 227.3398,-41.0685"/>
<polygon fill="#000000" stroke="#000000" points="229.0899,-41.0685 227.3398,-36.0685 225.5899,-41.0685 229.0899,-41.0685"/>
</g>
<!-- github.com/ubiqueworks/go&#45;solid&#45;tutorial/service&#45;&gt;github.com/ubiqueworks/go&#45;solid&#45;tutorial/repo -->
<g id="edge11" class="edge">
<title>github.com/ubiqueworks/go&#45;solid&#45;tutorial/service&#45;&gt;github.com/ubiqueworks/go&#45;solid&#45;tutorial/repo</title>
<path fill="none" stroke="#000000" d="M762.6185,-187.8759C762.6185,-160.5605 762.6185,-112 762.6185,-112 762.6185,-112 284.4324,-112 284.4324,-112"/>
<polygon fill="#000000" stroke="#000000" points="284.4324,-110.2501 279.4324,-112 284.4323,-113.7501 284.4324,-110.2501"/>
</g>
<!-- github.com/ubiqueworks/go&#45;solid&#45;tutorial/service&#45;&gt;github.com/ubiqueworks/go&#45;solid&#45;tutorial/domain -->
<g id="edge10" class="edge">
<title>github.com/ubiqueworks/go&#45;solid&#45;tutorial/service&#45;&gt;github.com/ubiqueworks/go&#45;solid&#45;tutorial/domain</title>
<path fill="none" stroke="#000000" d="M860.6198,-187.9738C860.6198,-140.9189 860.6198,-18 860.6198,-18 860.6198,-18 477.1344,-18 477.1344,-18"/>
<polygon fill="#000000" stroke="#000000" points="477.1345,-16.2501 472.1344,-18 477.1344,-19.7501 477.1345,-16.2501"/>
</g>
</g>
</svg>
