<?xml version="1.0" encoding="UTF-8" standalone="no"?>
<!DOCTYPE svg PUBLIC "-//W3C//DTD SVG 1.1//EN"
 "http://www.w3.org/Graphics/SVG/1.1/DTD/svg11.dtd">
<!-- Generated by graphviz version 2.40.1 (20161225.0304)
 -->
<!-- Title: godep Pages: 1 -->
<svg width="1393pt" height="232pt"
 viewBox="0.00 0.00 1393.04 232.00" xmlns="http://www.w3.org/2000/svg" xmlns:xlink="http://www.w3.org/1999/xlink">
<g id="graph0" class="graph" transform="scale(1 1) rotate(0) translate(4 228)">
<title>godep</title>
<polygon fill="#ffffff" stroke="transparent" points="-4,4 -4,-228 1389.0386,-228 1389.0386,4 -4,4"/>
<!-- github.com/ubiqueworks/go&#45;solid&#45;tutorial/cmd/server -->
<g id="node1" class="node">
<title>github.com/ubiqueworks/go&#45;solid&#45;tutorial/cmd/server</title>
<g id="a_node1"><a xlink:href="https://godoc.org/github.com/ubiqueworks/go-solid-tutorial/cmd/server" xlink:title="github.com/ubiqueworks/go&#45;solid&#45;tutorial/cmd/server" target="_blank">
<path fill="#afeeee" stroke="#afeeee" d="M837.0511,-224C837.0511,-224 544.9391,-224 544.9391,-224 538.9391,-224 532.9391,-218 532.9391,-212 532.9391,-212 532.9391,-200 532.9391,-200 532.9391,-194 538.9391,-188 544.9391,-188 544.9391,-188 837.0511,-188 837.0511,-188 843.0511,-188 849.0511,-194 849.0511,-200 849.0511,-200 849.0511,-212 849.0511,-212 849.0511,-218 843.0511,-224 837.0511,-224"/>
<text text-anchor="middle" x="690.9951" y="-201.8" font-family="Times,serif" font-size="14.00" fill="#000000">github.com/ubiqueworks/go&#45;solid&#45;tutorial/cmd/server</text>
</a>
</g>
</g>
<!-- github.com/ubiqueworks/go&#45;solid&#45;tutorial/handler/httphandler -->
<g id="node2" class="node">
<title>github.com/ubiqueworks/go&#45;solid&#45;tutorial/handler/httphandler</title>
<g id="a_node2"><a xlink:href="https://godoc.org/github.com/ubiqueworks/go-solid-tutorial/handler/httphandler" xlink:title="github.com/ubiqueworks/go&#45;solid&#45;tutorial/handler/httphandler" target="_blank">
<path fill="#afeeee" stroke="#afeeee" d="M351.9854,-130C351.9854,-130 12.0049,-130 12.0049,-130 6.0049,-130 .0049,-124 .0049,-118 .0049,-118 .0049,-106 .0049,-106 .0049,-100 6.0049,-94 12.0049,-94 12.0049,-94 351.9854,-94 351.9854,-94 357.9854,-94 363.9854,-100 363.9854,-106 363.9854,-106 363.9854,-118 363.9854,-118 363.9854,-124 357.9854,-130 351.9854,-130"/>
<text text-anchor="middle" x="181.9951" y="-107.8" font-family="Times,serif" font-size="14.00" fill="#000000">github.com/ubiqueworks/go&#45;solid&#45;tutorial/handler/httphandler</text>
</a>
</g>
</g>
<!-- github.com/ubiqueworks/go&#45;solid&#45;tutorial/cmd/server&#45;&gt;github.com/ubiqueworks/go&#45;solid&#45;tutorial/handler/httphandler -->
<g id="edge1" class="edge">
<title>github.com/ubiqueworks/go&#45;solid&#45;tutorial/cmd/server&#45;&gt;github.com/ubiqueworks/go&#45;solid&#45;tutorial/handler/httphandler</title>
<path fill="none" stroke="#000000" d="M532.7345,-206C383.3164,-206 181.9951,-206 181.9951,-206 181.9951,-206 181.9951,-135.1241 181.9951,-135.1241"/>
<polygon fill="#000000" stroke="#000000" points="183.7452,-135.1241 181.9951,-130.1241 180.2452,-135.1242 183.7452,-135.1241"/>
</g>
<!-- github.com/ubiqueworks/go&#45;solid&#45;tutorial/handler/rpchandler -->
<g id="node3" class="node">
<title>github.com/ubiqueworks/go&#45;solid&#45;tutorial/handler/rpchandler</title>
<g id="a_node3"><a xlink:href="https://godoc.org/github.com/ubiqueworks/go-solid-tutorial/handler/rpchandler" xlink:title="github.com/ubiqueworks/go&#45;solid&#45;tutorial/handler/rpchandler" target="_blank">
<path fill="#afeeee" stroke="#afeeee" d="M1373.082,-130C1373.082,-130 1036.9082,-130 1036.9082,-130 1030.9082,-130 1024.9082,-124 1024.9082,-118 1024.9082,-118 1024.9082,-106 1024.9082,-106 1024.9082,-100 1030.9082,-94 1036.9082,-94 1036.9082,-94 1373.082,-94 1373.082,-94 1379.082,-94 1385.082,-100 1385.082,-106 1385.082,-106 1385.082,-118 1385.082,-118 1385.082,-124 1379.082,-130 1373.082,-130"/>
<text text-anchor="middle" x="1204.9951" y="-107.8" font-family="Times,serif" font-size="14.00" fill="#000000">github.com/ubiqueworks/go&#45;solid&#45;tutorial/handler/rpchandler</text>
</a>
</g>
</g>
<!-- github.com/ubiqueworks/go&#45;solid&#45;tutorial/cmd/server&#45;&gt;github.com/ubiqueworks/go&#45;solid&#45;tutorial/handler/rpchandler -->
<g id="edge2" class="edge">
<title>github.com/ubiqueworks/go&#45;solid&#45;tutorial/cmd/server&#45;&gt;github.com/ubiqueworks/go&#45;solid&#45;tutorial/handler/rpchandler</title>
<path fill="none" stroke="#000000" d="M849.0556,-206C1000.1148,-206 1204.9951,-206 1204.9951,-206 1204.9951,-206 1204.9951,-135.1241 1204.9951,-135.1241"/>
<polygon fill="#000000" stroke="#000000" points="1206.7452,-135.1241 1204.9951,-130.1241 1203.2452,-135.1242 1206.7452,-135.1241"/>
</g>
<!-- github.com/ubiqueworks/go&#45;solid&#45;tutorial/repo -->
<g id="node4" class="node">
<title>github.com/ubiqueworks/go&#45;solid&#45;tutorial/repo</title>
<g id="a_node4"><a xlink:href="https://godoc.org/github.com/ubiqueworks/go-solid-tutorial/repo" xlink:title="github.com/ubiqueworks/go&#45;solid&#45;tutorial/repo" target="_blank">
<path fill="#afeeee" stroke="#afeeee" d="M660.7335,-130C660.7335,-130 405.2567,-130 405.2567,-130 399.2567,-130 393.2567,-124 393.2567,-118 393.2567,-118 393.2567,-106 393.2567,-106 393.2567,-100 399.2567,-94 405.2567,-94 405.2567,-94 660.7335,-94 660.7335,-94 666.7335,-94 672.7335,-100 672.7335,-106 672.7335,-106 672.7335,-118 672.7335,-118 672.7335,-124 666.7335,-130 660.7335,-130"/>
<text text-anchor="middle" x="532.9951" y="-107.8" font-family="Times,serif" font-size="14.00" fill="#000000">github.com/ubiqueworks/go&#45;solid&#45;tutorial/repo</text>
</a>
</g>
</g>
<!-- github.com/ubiqueworks/go&#45;solid&#45;tutorial/cmd/server&#45;&gt;github.com/ubiqueworks/go&#45;solid&#45;tutorial/repo -->
<g id="edge3" class="edge">
<title>github.com/ubiqueworks/go&#45;solid&#45;tutorial/cmd/server&#45;&gt;github.com/ubiqueworks/go&#45;solid&#45;tutorial/repo</title>
<path fill="none" stroke="#000000" d="M602.6658,-187.8759C602.6658,-187.8759 602.6658,-135.0685 602.6658,-135.0685"/>
<polygon fill="#000000" stroke="#000000" points="604.4159,-135.0685 602.6658,-130.0685 600.9159,-135.0685 604.4159,-135.0685"/>
</g>
<!-- github.com/ubiqueworks/go&#45;solid&#45;tutorial/service -->
<g id="node5" class="node">
<title>github.com/ubiqueworks/go&#45;solid&#45;tutorial/service</title>
<g id="a_node5"><a xlink:href="https://godoc.org/github.com/ubiqueworks/go-solid-tutorial/service" xlink:title="github.com/ubiqueworks/go&#45;solid&#45;tutorial/service" target="_blank">
<path fill="#afeeee" stroke="#afeeee" d="M983.999,-130C983.999,-130 713.9912,-130 713.9912,-130 707.9912,-130 701.9912,-124 701.9912,-118 701.9912,-118 701.9912,-106 701.9912,-106 701.9912,-100 707.9912,-94 713.9912,-94 713.9912,-94 983.999,-94 983.999,-94 989.999,-94 995.999,-100 995.999,-106 995.999,-106 995.999,-118 995.999,-118 995.999,-124 989.999,-130 983.999,-130"/>
<text text-anchor="middle" x="848.9951" y="-107.8" font-family="Times,serif" font-size="14.00" fill="#000000">github.com/ubiqueworks/go&#45;solid&#45;tutorial/service</text>
</a>
</g>
</g>
<!-- github.com/ubiqueworks/go&#45;solid&#45;tutorial/cmd/server&#45;&gt;github.com/ubiqueworks/go&#45;solid&#45;tutorial/service -->
<g id="edge4" class="edge">
<title>github.com/ubiqueworks/go&#45;solid&#45;tutorial/cmd/server&#45;&gt;github.com/ubiqueworks/go&#45;solid&#45;tutorial/service</title>
<path fill="none" stroke="#000000" d="M775.6331,-187.8759C775.6331,-187.8759 775.6331,-135.0685 775.6331,-135.0685"/>
<polygon fill="#000000" stroke="#000000" points="777.3832,-135.0685 775.6331,-130.0685 773.8832,-135.0685 777.3832,-135.0685"/>
</g>
<!-- github.com/ubiqueworks/go&#45;solid&#45;tutorial/domain -->
<g id="node6" class="node">
<title>github.com/ubiqueworks/go&#45;solid&#45;tutorial/domain</title>
<g id="a_node6"><a xlink:href="https://godoc.org/github.com/ubiqueworks/go-solid-tutorial/domain" xlink:title="github.com/ubiqueworks/go&#45;solid&#45;tutorial/domain" target="_blank">
<path fill="#afeeee" stroke="#afeeee" d="M827.3508,-36C827.3508,-36 554.6394,-36 554.6394,-36 548.6394,-36 542.6394,-30 542.6394,-24 542.6394,-24 542.6394,-12 542.6394,-12 542.6394,-6 548.6394,0 554.6394,0 554.6394,0 827.3508,0 827.3508,0 833.3508,0 839.3508,-6 839.3508,-12 839.3508,-12 839.3508,-24 839.3508,-24 839.3508,-30 833.3508,-36 827.3508,-36"/>
<text text-anchor="middle" x="690.9951" y="-13.8" font-family="Times,serif" font-size="14.00" fill="#000000">github.com/ubiqueworks/go&#45;solid&#45;tutorial/domain</text>
</a>
</g>
</g>
<!-- github.com/ubiqueworks/go&#45;solid&#45;tutorial/handler/httphandler&#45;&gt;github.com/ubiqueworks/go&#45;solid&#45;tutorial/domain -->
<g id="edge5" class="edge">
<title>github.com/ubiqueworks/go&#45;solid&#45;tutorial/handler/httphandler&#45;&gt;github.com/ubiqueworks/go&#45;solid&#45;tutorial/domain</title>
<path fill="none" stroke="#000000" d="M181.9951,-93.8759C181.9951,-66.5605 181.9951,-18 181.9951,-18 181.9951,-18 537.7453,-18 537.7453,-18"/>
<polygon fill="#000000" stroke="#000000" points="537.7454,-19.7501 542.7453,-18 537.7453,-16.2501 537.7454,-19.7501"/>
</g>
<!-- github.com/ubiqueworks/go&#45;solid&#45;tutorial/handler/rpchandler&#45;&gt;github.com/ubiqueworks/go&#45;solid&#45;tutorial/domain -->
<g id="edge6" class="edge">
<title>github.com/ubiqueworks/go&#45;solid&#45;tutorial/handler/rpchandler&#45;&gt;github.com/ubiqueworks/go&#45;solid&#45;tutorial/domain</title>
<path fill="none" stroke="#000000" d="M1047.8828,-93.8759C1047.8828,-66.5605 1047.8828,-18 1047.8828,-18 1047.8828,-18 844.2472,-18 844.2472,-18"/>
<polygon fill="#000000" stroke="#000000" points="844.2472,-16.2501 839.2472,-18 844.2471,-19.7501 844.2472,-16.2501"/>
</g>
<!-- github.com/ubiqueworks/go&#45;solid&#45;tutorial/pb -->
<g id="node7" class="node">
<title>github.com/ubiqueworks/go&#45;solid&#45;tutorial/pb</title>
<g id="a_node7"><a xlink:href="https://godoc.org/github.com/ubiqueworks/go-solid-tutorial/pb" xlink:title="github.com/ubiqueworks/go&#45;solid&#45;tutorial/pb" target="_blank">
<path fill="#afeeee" stroke="#afeeee" d="M1327.3577,-36C1327.3577,-36 1082.6326,-36 1082.6326,-36 1076.6326,-36 1070.6326,-30 1070.6326,-24 1070.6326,-24 1070.6326,-12 1070.6326,-12 1070.6326,-6 1076.6326,0 1082.6326,0 1082.6326,0 1327.3577,0 1327.3577,0 1333.3577,0 1339.3577,-6 1339.3577,-12 1339.3577,-12 1339.3577,-24 1339.3577,-24 1339.3577,-30 1333.3577,-36 1327.3577,-36"/>
<text text-anchor="middle" x="1204.9951" y="-13.8" font-family="Times,serif" font-size="14.00" fill="#000000">github.com/ubiqueworks/go&#45;solid&#45;tutorial/pb</text>
</a>
</g>
</g>
<!-- github.com/ubiqueworks/go&#45;solid&#45;tutorial/handler/rpchandler&#45;&gt;github.com/ubiqueworks/go&#45;solid&#45;tutorial/pb -->
<g id="edge7" class="edge">
<title>github.com/ubiqueworks/go&#45;solid&#45;tutorial/handler/rpchandler&#45;&gt;github.com/ubiqueworks/go&#45;solid&#45;tutorial/pb</title>
<path fill="none" stroke="#000000" d="M1204.9951,-93.8759C1204.9951,-93.8759 1204.9951,-41.0685 1204.9951,-41.0685"/>
<polygon fill="#000000" stroke="#000000" points="1206.7452,-41.0685 1204.9951,-36.0685 1203.2452,-41.0685 1206.7452,-41.0685"/>
</g>
<!-- github.com/ubiqueworks/go&#45;solid&#45;tutorial/repo&#45;&gt;github.com/ubiqueworks/go&#45;solid&#45;tutorial/domain -->
<g id="edge8" class="edge">
<title>github.com/ubiqueworks/go&#45;solid&#45;tutorial/repo&#45;&gt;github.com/ubiqueworks/go&#45;solid&#45;tutorial/domain</title>
<path fill="none" stroke="#000000" d="M607.7158,-93.8759C607.7158,-93.8759 607.7158,-41.0685 607.7158,-41.0685"/>
<polygon fill="#000000" stroke="#000000" points="609.4659,-41.0685 607.7158,-36.0685 605.9659,-41.0685 609.4659,-41.0685"/>
</g>
<!-- github.com/ubiqueworks/go&#45;solid&#45;tutorial/service&#45;&gt;github.com/ubiqueworks/go&#45;solid&#45;tutorial/domain -->
<g id="edge9" class="edge">
<title>github.com/ubiqueworks/go&#45;solid&#45;tutorial/service&#45;&gt;github.com/ubiqueworks/go&#45;solid&#45;tutorial/domain</title>
<path fill="none" stroke="#000000" d="M770.583,-93.8759C770.583,-93.8759 770.583,-41.0685 770.583,-41.0685"/>
<polygon fill="#000000" stroke="#000000" points="772.3331,-41.0685 770.583,-36.0685 768.8331,-41.0685 772.3331,-41.0685"/>
</g>
</g>
</svg>
